<svg width="106" height="30" fill="none" xmlns="http://www.w3.org/2000/svg"><mask id="a" style="mask-type:luminance" maskUnits="userSpaceOnUse" x="0" y="0" width="30" height="30"><path d="M.574 0h29.16v29.031H.574V0Z" fill="#fff"/></mask><g mask="url(#a)"><path d="M11.508 0h7.289a10.917 10.917 0 0 1 7.734 3.204 10.847 10.847 0 0 1 2.371 3.546c.274.664.48 1.348.621 2.05.141.708.211 1.419.211 2.134v7.293a10.885 10.885 0 0 1-.832 4.183 11.122 11.122 0 0 1-1.011 1.89 10.838 10.838 0 0 1-1.36 1.657c-.508.508-1.058.961-1.656 1.36-.598.402-1.227.738-1.89 1.011-.665.277-1.348.485-2.051.621-.707.14-1.418.211-2.137.211h-7.29c-.718 0-1.429-.07-2.132-.21a10.514 10.514 0 0 1-2.05-.622 10.597 10.597 0 0 1-1.891-1.012 10.837 10.837 0 0 1-1.657-1.359 10.835 10.835 0 0 1-2.371-3.547 10.803 10.803 0 0 1-.832-4.183v-7.293c-.004-1.436.28-2.858.832-4.184a10.836 10.836 0 0 1 2.371-3.547A10.922 10.922 0 0 1 9.375.212 10.745 10.745 0 0 1 11.508 0Z" fill="#fff"/></g><path fill-rule="evenodd" clip-rule="evenodd" d="m8.152 13.727.875.515v4.094l.875.512.875.515 2.625 1.535.875.516.871.512.875-.512.875-.516 2.625-1.535.875-.515.875-.512v-4.094l.875-.515v1.855a.254.254 0 0 0-.12.219c0 .086.038.156.1.203l-.03.09-.176.55h.703l-.176-.55-.027-.09a.232.232 0 0 0 .101-.203.272.272 0 0 0-.168-.242v-1.954l-6.992-4.097.211-.125 7 4.097.453-.265.875-.512-1.75-1.023-.875-.516-.875-.508-.875-.515-4.375-2.559-3.5 2.047-.875.516-.87.511-3.5 2.047.874.512.871.512Zm6.125-1.536.875-.511 1.75 1.023-.875.516-1.75 1.023v1.024l.875.511 2.625-1.535.875-.515.875-.512.602-.352.273-.16-.746-.433-.129-.079-2.625-1.535-.875-.515-.87-.512-.88.516-.875.511-.87.512-2.626 1.535.875.516v4.094l.875.511.875.516.871.512 1.75 1.023 2.625-1.535.875-.516.875-.512v-2.046L16.902 16.8l-.875.515-.875.512-.875-.515-.875-.512-.87-.512v-3.074l.87-.512.875-.511Z" fill="#1A202C"/><path d="M46.99 20h-2.1l-4.755-7.185V20h-2.1V9.515h2.1l4.755 7.2v-7.2h2.1V20Zm4.175-8.775v2.625h3.525v1.665h-3.525v2.775h3.975V20h-6.075V9.515h6.075v1.71h-3.975ZM63.32 20l-2.265-3.525L58.999 20h-2.37l3.3-5.28-3.345-5.19h2.415l2.265 3.51 2.04-3.51h2.37l-3.285 5.265L65.734 20h-2.415Z" fill="#fff"/><path d="M74.457 9.53v1.695h-2.79V20h-2.1v-8.775h-2.79V9.53h7.68Zm3.632 1.695v2.625h3.525v1.665H78.09v2.775h3.975V20H75.99V9.515h6.075v1.71H78.09Zm5.374 3.525c0-1.03.23-1.95.69-2.76a4.98 4.98 0 0 1 1.904-1.905c.81-.46 1.715-.69 2.715-.69 1.17 0 2.195.3 3.075.9.88.6 1.496 1.43 1.846 2.49h-2.415c-.24-.5-.58-.875-1.02-1.125-.43-.25-.93-.375-1.5-.375a3.1 3.1 0 0 0-1.635.435c-.47.28-.84.68-1.11 1.2-.26.52-.39 1.13-.39 1.83 0 .69.13 1.3.39 1.83.27.52.64.925 1.11 1.215.48.28 1.024.42 1.634.42.57 0 1.07-.125 1.5-.375.44-.26.78-.64 1.02-1.14h2.415c-.35 1.07-.964 1.905-1.844 2.505-.87.59-1.895.885-3.076.885-1 0-1.904-.225-2.715-.675a5.122 5.122 0 0 1-1.904-1.905c-.46-.81-.69-1.73-.69-2.76Zm20.708-5.22V20h-2.1v-4.455h-4.485V20h-2.1V9.53h2.1v4.305h4.485V9.53h2.1Z" fill="#2EECC5"/></svg>