<svg width="177" height="50" fill="none" xmlns="http://www.w3.org/2000/svg"><mask id="a" style="mask-type:luminance" maskUnits="userSpaceOnUse" x="0" y="0" width="50" height="49"><path d="M.957 0h48.6v48.385H.957V0Z" fill="#fff"/></mask><g mask="url(#a)"><path d="M19.18 0h12.148a18.195 18.195 0 0 1 12.89 5.34 18.082 18.082 0 0 1 2.267 2.758 18.567 18.567 0 0 1 1.685 3.152c.457 1.107.8 2.247 1.035 3.417.235 1.18.352 2.365.352 3.556v12.155c0 1.197-.117 2.384-.35 3.554a18.456 18.456 0 0 1-1.037 3.418 18.531 18.531 0 0 1-1.685 3.15 18.065 18.065 0 0 1-2.267 2.762 18.1 18.1 0 0 1-2.76 2.266 17.72 17.72 0 0 1-3.15 1.685 17.519 17.519 0 0 1-3.418 1.035 18.272 18.272 0 0 1-3.562.352h-12.15c-1.196 0-2.381-.117-3.553-.35a17.52 17.52 0 0 1-3.417-1.037 17.66 17.66 0 0 1-3.151-1.686 18.067 18.067 0 0 1-2.762-2.265 18.06 18.06 0 0 1-3.952-5.912 18.005 18.005 0 0 1-1.386-6.972V18.223a18.005 18.005 0 0 1 1.386-6.973 18.06 18.06 0 0 1 3.952-5.912 18.204 18.204 0 0 1 9.33-4.985A17.91 17.91 0 0 1 19.18 0Z" fill="#fff"/></g><path fill-rule="evenodd" clip-rule="evenodd" d="m13.587 22.878 1.458.859v6.823l1.458.853 1.459.859 4.375 2.558 1.458.86 1.452.853 1.458-.853 1.458-.86 4.375-2.558 1.459-.859 1.458-.853v-6.823l1.458-.859v3.092a.423.423 0 0 0-.2.365c0 .143.064.26.167.338l-.05.15-.293.917h1.171l-.293-.917-.045-.15a.386.386 0 0 0 .168-.338.453.453 0 0 0-.28-.403v-3.257l-11.653-6.828.352-.209 11.666 6.829.755-.442 1.459-.853-2.917-1.705-1.458-.86-1.459-.847-1.458-.858-7.292-4.265-5.833 3.411-1.458.86-1.45.852-5.834 3.412 1.457.853 1.452.853Zm10.208-2.56 1.458-.851 2.917 1.705-1.458.86-2.917 1.705v1.706l1.458.852 4.375-2.558 1.459-.859 1.458-.853 1.003-.587.455-.266-1.243-.722-.215-.132-4.375-2.558-1.458-.858-1.45-.854-1.467.86-1.458.852-1.45.853-4.377 2.559 1.458.86v6.823l1.459.852 1.458.86 1.452.853 2.916 1.705 4.375-2.558 1.459-.86 1.458-.854v-3.41L28.17 28l-1.458.858-1.459.854-1.458-.859L22.337 28l-1.45-.853v-5.124l1.45-.853 1.458-.852Z" fill="#1A202C"/><path d="M78.317 33.333h-3.5l-7.925-11.975v11.975h-3.5V15.858h3.5l7.925 12v-12h3.5v17.475Zm6.958-14.625v4.375h5.875v2.775h-5.875v4.625H91.9v2.85H81.775V15.858H91.9v2.85h-6.625Zm20.256 14.625-3.775-5.875-3.425 5.875h-3.95l5.5-8.8-5.575-8.65h4.025l3.775 5.85 3.4-5.85h3.95l-5.475 8.775 5.575 8.675h-4.025Z" fill="#fff"/><path d="M124.095 15.883v2.825h-4.65v14.625h-3.5V18.708h-4.65v-2.825h12.8Zm6.054 2.825v4.375h5.875v2.775h-5.875v4.625h6.625v2.85h-10.125V15.858h10.125v2.85h-6.625Zm8.955 5.875c0-1.716.384-3.25 1.15-4.6.784-1.366 1.842-2.425 3.175-3.175 1.35-.766 2.859-1.15 4.525-1.15 1.95 0 3.659.5 5.125 1.5 1.467 1 2.492 2.384 3.075 4.15h-4.025c-.4-.833-.966-1.458-1.7-1.875-.716-.416-1.55-.625-2.5-.625-1.016 0-1.925.242-2.725.725-.783.467-1.4 1.134-1.85 2-.433.867-.65 1.884-.65 3.05 0 1.15.217 2.167.65 3.05.45.867 1.067 1.542 1.85 2.025.8.467 1.709.7 2.725.7.95 0 1.784-.208 2.5-.625.734-.433 1.3-1.066 1.7-1.9h4.025c-.583 1.784-1.608 3.175-3.075 4.175-1.45.984-3.158 1.475-5.125 1.475-1.666 0-3.175-.375-4.525-1.125a8.543 8.543 0 0 1-3.175-3.175c-.766-1.35-1.15-2.883-1.15-4.6Zm34.514-8.7v17.45h-3.5v-7.425h-7.474v7.425h-3.5v-17.45h3.5v7.175h7.474v-7.175h3.5Z" fill="#2EECC5"/></svg>