<svg width="450" height="450" viewBox="0 0 450 450" fill="none" xmlns="http://www.w3.org/2000/svg">
<mask id="mask0_751_8" style="mask-type:luminance" maskUnits="userSpaceOnUse" x="0" y="0" width="450" height="450">
<path d="M0 0H450V450H0V0Z" fill="white"/>
</mask>
<g mask="url(#mask0_751_8)">
<path d="M168.735 3.3253e-05H281.219C303.392 -0.0139284 325.35 4.36869 345.833 12.8966C356.08 17.1282 365.787 22.3985 375.016 28.5832C384.244 34.7525 392.732 41.7743 400.571 49.6642C408.411 57.523 415.401 66.0639 421.559 75.3178C427.701 84.5872 432.886 94.3371 437.161 104.63C441.389 114.922 444.568 125.524 446.744 136.406C448.92 147.38 450 158.401 450 169.484V282.531C450 293.66 448.92 304.697 446.759 315.578C444.583 326.475 441.389 337.078 437.161 347.37C432.911 357.618 427.687 367.428 421.559 376.666C415.424 385.903 408.395 394.508 400.571 402.351C392.732 410.225 384.244 417.247 375.016 423.432C365.787 429.663 356.08 434.871 345.849 439.103C335.587 443.397 325.046 446.621 314.198 448.729C303.287 450.899 292.315 452 281.219 452H168.719C157.639 452 146.667 450.915 135.818 448.744C124.974 446.621 114.374 443.39 104.183 439.103C93.952 434.879 84.1747 429.623 75.0005 423.416C65.8048 417.261 57.2394 410.204 49.4295 402.351C33.726 386.641 21.2885 367.952 12.84 347.37C4.31303 326.829 -0.0518585 304.787 0.000502539 282.531V169.484C-0.053911 147.224 4.31101 125.176 12.84 104.63C21.2885 84.0481 33.726 65.359 49.4295 49.6487C57.269 41.7743 65.7721 34.768 75.0005 28.5677C93.4091 16.1836 114.081 7.5906 135.818 3.28617C146.667 1.08508 157.639 3.3253e-05 168.735 3.3253e-05Z" fill="#2EECC5"/>
</g>
<path fill-rule="evenodd" clip-rule="evenodd" d="M116.944 212.778L130.447 220.761V284.22L143.951 292.157L157.454 300.14L197.963 323.933L211.466 331.931L224.908 339.868L238.411 331.931L251.914 323.933L292.423 300.14L305.926 292.157L319.429 284.22V220.761L332.932 212.778V241.532C332.358 241.89 331.886 242.39 331.562 242.985C331.238 243.579 331.071 244.249 331.08 244.926C331.08 246.259 331.667 247.344 332.624 248.073L332.161 249.468L329.445 257.993H340.293L337.577 249.468L337.161 248.073C337.665 247.726 338.074 247.254 338.346 246.703C338.619 246.152 338.747 245.542 338.719 244.926C338.691 244.117 338.432 243.333 337.972 242.668C337.512 242.003 336.872 241.485 336.127 241.175V210.887L228.225 147.381L231.482 145.443L339.506 208.949L346.497 204.841L360 196.905L332.994 181.048L319.491 173.05L305.988 165.175L292.485 157.192L224.969 117.527L170.957 149.256L157.454 157.254L144.028 165.175L90.0154 196.905L103.503 204.841L116.944 212.778ZM211.466 188.969L224.969 181.048L251.975 196.905L238.472 204.903L211.466 220.761V236.633L224.969 244.554L265.479 220.761L278.982 212.778L292.485 204.841L301.775 199.385L305.988 196.905L294.475 190.193L292.485 188.969L251.975 165.175L238.472 157.192L225.046 149.256L211.466 157.254L197.963 165.175L184.537 173.112L144.012 196.905L157.516 204.903V268.363L171.019 276.284L184.522 284.282L197.963 292.219L224.969 308.076L265.479 284.282L278.982 276.284L292.485 268.348V236.633L251.975 260.411L238.472 268.394L224.969 276.331L211.466 268.348L197.963 260.411L184.537 252.475V204.826L197.963 196.89L211.466 188.969Z" fill="#1A202C"/>
</svg>
