<svg width="205" height="50" fill="none" xmlns="http://www.w3.org/2000/svg"><mask id="a" style="mask-type:luminance" maskUnits="userSpaceOnUse" x="0" y="0" width="49" height="49"><path d="M0 0h48.6v48.385H0V0Z" fill="#fff"/></mask><g mask="url(#a)"><path d="M18.223 0h12.149a18.194 18.194 0 0 1 12.89 5.34 18.082 18.082 0 0 1 2.266 2.758 18.567 18.567 0 0 1 1.685 3.152c.457 1.107.8 2.247 1.035 3.417.235 1.18.352 2.365.352 3.556v12.155c0 1.197-.117 2.384-.35 3.554a18.456 18.456 0 0 1-1.037 3.418 18.517 18.517 0 0 1-1.685 3.15 18.053 18.053 0 0 1-2.266 2.762 18.1 18.1 0 0 1-2.76 2.266 17.72 17.72 0 0 1-3.15 1.685 17.519 17.519 0 0 1-3.419 1.035 18.272 18.272 0 0 1-3.561.352h-12.15c-1.197 0-2.382-.117-3.554-.35a17.52 17.52 0 0 1-3.416-1.037A17.66 17.66 0 0 1 8.1 45.527a18.068 18.068 0 0 1-2.762-2.265 18.06 18.06 0 0 1-3.951-5.912A18.005 18.005 0 0 1 0 30.378V18.223a18.005 18.005 0 0 1 1.387-6.973 18.06 18.06 0 0 1 3.951-5.912 18.204 18.204 0 0 1 9.33-4.985A17.908 17.908 0 0 1 18.223 0Z" fill="#1A202C"/></g><path fill-rule="evenodd" clip-rule="evenodd" d="m12.63 22.878 1.458.859v6.823l1.459.853 1.458.859 4.375 2.558 1.458.86 1.452.853 1.458-.853 1.459-.86 4.375-2.558 1.458-.859 1.458-.853v-6.823l1.459-.859v3.092a.424.424 0 0 0-.2.365c0 .143.063.26.166.338l-.05.15-.293.917h1.172l-.294-.917-.045-.15a.388.388 0 0 0 .169-.338.453.453 0 0 0-.28-.403v-3.257l-11.654-6.828.352-.209 11.667 6.829.755-.442 1.458-.853-2.917-1.705-1.458-.86-1.458-.847-1.459-.858-7.291-4.265-5.834 3.411-1.458.86-1.45.852-5.833 3.412 1.456.853 1.452.853Zm10.208-2.56 1.459-.851 2.916 1.705-1.458.86-2.917 1.705v1.706l1.459.852 4.375-2.558 1.458-.859 1.458-.853 1.004-.587.455-.266-1.244-.722-.215-.132-4.375-2.558-1.458-.858-1.45-.854-1.467.86-1.458.852-1.45.853-4.377 2.559 1.459.86v6.823l1.458.852 1.458.86 1.452.853 2.917 1.705 4.375-2.558 1.458-.86 1.458-.854v-3.41L27.213 28l-1.458.858-1.458.854-1.459-.859L21.38 28l-1.45-.853v-5.124l1.45-.853 1.458-.852Z" fill="#fff"/><path d="M65.935 18.708v4.375h5.875v2.775h-5.875v4.625h6.625v2.85H62.435V15.858H72.56v2.85h-6.625Zm15.906-2.825c1.833 0 3.441.359 4.825 1.075 1.4.717 2.475 1.742 3.225 3.075.766 1.317 1.15 2.85 1.15 4.6 0 1.75-.384 3.284-1.15 4.6-.75 1.3-1.825 2.309-3.225 3.025-1.384.717-2.992 1.075-4.825 1.075h-6.1v-17.45h6.1Zm-.125 14.475c1.833 0 3.25-.5 4.25-1.5s1.5-2.408 1.5-4.225c0-1.816-.5-3.233-1.5-4.25-1-1.033-2.417-1.55-4.25-1.55H79.24v11.525h2.475ZM97.11 15.883v10.8c0 1.184.308 2.092.925 2.725.616.617 1.483.925 2.6.925 1.133 0 2.008-.308 2.625-.925.616-.633.925-1.541.925-2.725v-10.8h3.525v10.775c0 1.484-.325 2.742-.975 3.775a6.04 6.04 0 0 1-2.575 2.3c-1.067.517-2.259.775-3.575.775-1.3 0-2.484-.258-3.55-.775a5.941 5.941 0 0 1-2.5-2.3c-.617-1.033-.925-2.291-.925-3.775V15.883h3.5Z" fill="#1A202C"/><path d="M110.242 24.583c0-1.716.384-3.25 1.15-4.6.784-1.366 1.842-2.425 3.175-3.175 1.35-.766 2.859-1.15 4.525-1.15 1.95 0 3.659.5 5.125 1.5 1.467 1 2.492 2.384 3.075 4.15h-4.025c-.4-.833-.966-1.458-1.7-1.875-.716-.416-1.55-.625-2.5-.625-1.016 0-1.925.242-2.725.725-.783.467-1.4 1.134-1.85 2-.433.867-.65 1.884-.65 3.05 0 1.15.217 2.167.65 3.05.45.867 1.067 1.542 1.85 2.025.8.467 1.709.7 2.725.7.95 0 1.784-.208 2.5-.625.734-.433 1.3-1.066 1.7-1.9h4.025c-.583 1.784-1.608 3.175-3.075 4.175-1.45.984-3.158 1.475-5.125 1.475-1.666 0-3.175-.375-4.525-1.125a8.544 8.544 0 0 1-3.175-3.175c-.766-1.35-1.15-2.883-1.15-4.6Zm30.74 5.425h-6.95l-1.15 3.325h-3.675l6.275-17.475h4.075l6.275 17.475h-3.7l-1.15-3.325Zm-.95-2.8-2.525-7.3-2.525 7.3h5.05Zm20.02-11.325v2.825h-4.65v14.625h-3.5V18.708h-4.65v-2.825h12.8Zm6.054 0v17.45h-3.5v-17.45h3.5Zm11.557 17.625c-1.633 0-3.133-.383-4.5-1.15a8.619 8.619 0 0 1-3.25-3.175c-.8-1.366-1.2-2.908-1.2-4.625 0-1.7.4-3.225 1.2-4.575a8.563 8.563 0 0 1 3.25-3.2c1.367-.766 2.867-1.15 4.5-1.15 1.65 0 3.15.384 4.5 1.15a8.375 8.375 0 0 1 3.225 3.2c.8 1.35 1.2 2.875 1.2 4.575 0 1.717-.4 3.259-1.2 4.625a8.426 8.426 0 0 1-3.225 3.175c-1.366.767-2.866 1.15-4.5 1.15Zm0-3.125c1.05 0 1.975-.233 2.775-.7.8-.483 1.425-1.166 1.875-2.05.45-.883.675-1.908.675-3.075 0-1.166-.225-2.183-.675-3.05-.45-.883-1.075-1.558-1.875-2.025-.8-.466-1.725-.7-2.775-.7-1.05 0-1.983.234-2.8.7-.8.467-1.425 1.142-1.875 2.025-.45.867-.675 1.884-.675 3.05 0 1.167.225 2.192.675 3.075.45.884 1.075 1.567 1.875 2.05.817.467 1.75.7 2.8.7Zm26.455 2.95h-3.5l-7.925-11.975v11.975h-3.5V15.858h3.5l7.925 12v-12h3.5v17.475Z" fill="#2EECC5"/></svg>